# xmcd
#
# Track frame offsets: 
#        150
#        6085
#        22580
#        24366
#        43536
#        61947
#        78822
#        80560
#        99266
#        102459
#        118558
#        137080
#        140998
#        161889
#        164783
#        176966
#        194806
#        213294
#
# Disc length: 2933 seconds
#
# Revision: 0
# Processed by: cddbd v1.5.2PL0 Copyright (c) Steve Scherf et al.
# Submitted via: ExactAudioCopy v0.95b4
#
DISCID=f60b7312
DTITLE=Panacea - Looking Back, Thinking Forward
DYEAR=2002
DGENRE=Hip-Hop
TTITLE0="The End of the Beginning..."
TTITLE1=Birdfeather
TTITLE2="Let's Make some Trax"
TTITLE3=Classic
TTITLE4=Colorful Storms
TTITLE5=Freedom Theory
TTITLE6="Just Like Brothers"
TTITLE7=The Great Escape
TTITLE8="Koonfoolery"
TTITLE9=Heartache
TTITLE10=Limitless Pages
TTITLE11="Hero"
TTITLE12=Screenplay/Star Stories
TTITLE13="Whole World to See"
TTITLE14=She Doesn't Know
TTITLE15=Sunburst
TTITLE16=Pupil Stars
TTITLE17="The Beginning of the End..."
EXTD=
EXTT0=
EXTT1=
EXTT2=
EXTT3=
EXTT4=
EXTT5=
EXTT6=
EXTT7=
EXTT8=
EXTT9=
EXTT10=
EXTT11=
EXTT12=
EXTT13=
EXTT14=
EXTT15=
EXTT16=
EXTT17=
PLAYORDER=
